<mxfile host="Electron" agent="Mozilla/5.0 (Windows NT 10.0; Win64; x64) AppleWebKit/537.36 (KHTML, like Gecko) draw.io/26.2.2 Chrome/134.0.6998.178 Electron/35.1.2 Safari/537.36" version="26.2.2">
  <diagram name="Page-1" id="oOVt5ZyBEsCA2MVd8MUp">
    <mxGraphModel dx="7107" dy="5959" grid="1" gridSize="10" guides="1" tooltips="1" connect="1" arrows="1" fold="1" page="1" pageScale="1" pageWidth="827" pageHeight="1169" math="0" shadow="0">
      <root>
        <mxCell id="0" />
        <mxCell id="1" parent="0" />
        <mxCell id="VR652VqxglArZezylCzY-1" value="&lt;h1 style=&quot;margin-top: 0px;&quot;&gt;&lt;font style=&quot;font-size: 22px;&quot;&gt;Integration Model&lt;/font&gt;&lt;/h1&gt;&lt;p&gt;&lt;font style=&quot;font-size: 6px;&quot;&gt;&amp;nbsp;&amp;nbsp;&lt;/font&gt;&lt;/p&gt;" style="text;html=1;whiteSpace=wrap;overflow=hidden;rounded=0;rotation=0;fillColor=#e6d0de;gradientColor=#d5739d;strokeColor=#996185;" parent="1" vertex="1">
          <mxGeometry x="-4590" y="-3590" width="230" height="40" as="geometry" />
        </mxCell>
        <mxCell id="VR652VqxglArZezylCzY-2" value="crm_cust_info" style="swimlane;fontStyle=0;childLayout=stackLayout;horizontal=1;startSize=30;horizontalStack=0;resizeParent=1;resizeParentMax=0;resizeLast=0;collapsible=1;marginBottom=0;whiteSpace=wrap;html=1;rounded=1;align=center;verticalAlign=top;fontFamily=Helvetica;fontSize=26;fontColor=#ffffff;fillColor=#1ba1e2;strokeColor=#006EAF;spacingTop=-8;" parent="1" vertex="1">
          <mxGeometry x="-4110" y="-3280" width="250" height="90" as="geometry" />
        </mxCell>
        <mxCell id="VR652VqxglArZezylCzY-3" value="cst_id" style="text;strokeColor=none;fillColor=none;align=left;verticalAlign=middle;spacingLeft=4;spacingRight=4;overflow=hidden;points=[[0,0.5],[1,0.5]];portConstraint=eastwest;rotatable=0;whiteSpace=wrap;html=1;fontFamily=Helvetica;fontSize=26;fontColor=default;" parent="VR652VqxglArZezylCzY-2" vertex="1">
          <mxGeometry y="30" width="250" height="30" as="geometry" />
        </mxCell>
        <mxCell id="VR652VqxglArZezylCzY-22" value="cst_key" style="text;strokeColor=none;fillColor=none;align=left;verticalAlign=middle;spacingLeft=4;spacingRight=4;overflow=hidden;points=[[0,0.5],[1,0.5]];portConstraint=eastwest;rotatable=0;whiteSpace=wrap;html=1;fontFamily=Helvetica;fontSize=26;fontColor=default;" parent="VR652VqxglArZezylCzY-2" vertex="1">
          <mxGeometry y="60" width="250" height="30" as="geometry" />
        </mxCell>
        <mxCell id="VR652VqxglArZezylCzY-6" value="&lt;font style=&quot;font-size: 21px;&quot;&gt;customer information&lt;/font&gt;" style="text;html=1;align=center;verticalAlign=middle;whiteSpace=wrap;rounded=0;fontFamily=Helvetica;fontSize=12;fontColor=default;" parent="1" vertex="1">
          <mxGeometry x="-4100" y="-3310" width="210" height="30" as="geometry" />
        </mxCell>
        <mxCell id="VR652VqxglArZezylCzY-7" value="crm_prod_info" style="swimlane;fontStyle=0;childLayout=stackLayout;horizontal=1;startSize=30;horizontalStack=0;resizeParent=1;resizeParentMax=0;resizeLast=0;collapsible=1;marginBottom=0;whiteSpace=wrap;html=1;rounded=1;align=center;verticalAlign=top;fontFamily=Helvetica;fontSize=26;fontColor=#ffffff;fillColor=#1ba1e2;strokeColor=#006EAF;spacingTop=-8;" parent="1" vertex="1">
          <mxGeometry x="-4110" y="-3430" width="250" height="60" as="geometry" />
        </mxCell>
        <mxCell id="VR652VqxglArZezylCzY-8" value="prd_key" style="text;strokeColor=none;fillColor=none;align=left;verticalAlign=middle;spacingLeft=4;spacingRight=4;overflow=hidden;points=[[0,0.5],[1,0.5]];portConstraint=eastwest;rotatable=0;whiteSpace=wrap;html=1;fontFamily=Helvetica;fontSize=26;fontColor=default;" parent="VR652VqxglArZezylCzY-7" vertex="1">
          <mxGeometry y="30" width="250" height="30" as="geometry" />
        </mxCell>
        <mxCell id="VR652VqxglArZezylCzY-9" value="&lt;font style=&quot;font-size: 21px;&quot;&gt;current and history product info&lt;/font&gt;" style="text;html=1;align=center;verticalAlign=middle;whiteSpace=wrap;rounded=0;fontFamily=Helvetica;fontSize=12;fontColor=default;" parent="1" vertex="1">
          <mxGeometry x="-4135" y="-3460" width="315" height="30" as="geometry" />
        </mxCell>
        <mxCell id="VR652VqxglArZezylCzY-10" value="&lt;font style=&quot;font-size: 21px;&quot;&gt;transactional records about sales &amp;amp; order&lt;/font&gt;&lt;div&gt;&lt;font style=&quot;font-size: 21px;&quot;&gt;&lt;br&gt;&lt;/font&gt;&lt;/div&gt;" style="text;html=1;align=center;verticalAlign=middle;whiteSpace=wrap;rounded=0;fontFamily=Helvetica;fontSize=12;fontColor=default;" parent="1" vertex="1">
          <mxGeometry x="-4562.5" y="-3400" width="315" height="30" as="geometry" />
        </mxCell>
        <mxCell id="VR652VqxglArZezylCzY-11" value="crm_sales_details&lt;div&gt;&lt;br&gt;&lt;/div&gt;" style="swimlane;fontStyle=0;childLayout=stackLayout;horizontal=1;startSize=30;horizontalStack=0;resizeParent=1;resizeParentMax=0;resizeLast=0;collapsible=1;marginBottom=0;whiteSpace=wrap;html=1;rounded=1;align=center;verticalAlign=top;fontFamily=Helvetica;fontSize=26;fontColor=#ffffff;fillColor=#1ba1e2;strokeColor=#006EAF;spacingTop=-8;" parent="1" vertex="1">
          <mxGeometry x="-4530" y="-3360" width="250" height="90" as="geometry" />
        </mxCell>
        <mxCell id="VR652VqxglArZezylCzY-12" value="prd_key" style="text;strokeColor=none;fillColor=none;align=left;verticalAlign=middle;spacingLeft=4;spacingRight=4;overflow=hidden;points=[[0,0.5],[1,0.5]];portConstraint=eastwest;rotatable=0;whiteSpace=wrap;html=1;fontFamily=Helvetica;fontSize=26;fontColor=default;" parent="VR652VqxglArZezylCzY-11" vertex="1">
          <mxGeometry y="30" width="250" height="30" as="geometry" />
        </mxCell>
        <mxCell id="VR652VqxglArZezylCzY-13" value="cst_id" style="text;strokeColor=none;fillColor=none;align=left;verticalAlign=middle;spacingLeft=4;spacingRight=4;overflow=hidden;points=[[0,0.5],[1,0.5]];portConstraint=eastwest;rotatable=0;whiteSpace=wrap;html=1;fontFamily=Helvetica;fontSize=26;fontColor=default;" parent="VR652VqxglArZezylCzY-11" vertex="1">
          <mxGeometry y="60" width="250" height="30" as="geometry" />
        </mxCell>
        <mxCell id="VR652VqxglArZezylCzY-14" value="" style="endArrow=classic;html=1;rounded=0;fontFamily=Helvetica;fontSize=12;fontColor=default;exitX=1;exitY=0.5;exitDx=0;exitDy=0;" parent="1" source="VR652VqxglArZezylCzY-13" edge="1">
          <mxGeometry width="50" height="50" relative="1" as="geometry">
            <mxPoint x="-4280" y="-3310" as="sourcePoint" />
            <mxPoint x="-4120" y="-3240" as="targetPoint" />
            <Array as="points">
              <mxPoint x="-4240" y="-3285" />
              <mxPoint x="-4240" y="-3240" />
            </Array>
          </mxGeometry>
        </mxCell>
        <mxCell id="VR652VqxglArZezylCzY-16" value="" style="endArrow=classic;html=1;rounded=0;fontFamily=Helvetica;fontSize=12;fontColor=default;exitX=1;exitY=0.5;exitDx=0;exitDy=0;" parent="1" source="VR652VqxglArZezylCzY-12" edge="1">
          <mxGeometry width="50" height="50" relative="1" as="geometry">
            <mxPoint x="-4240" y="-3280" as="sourcePoint" />
            <mxPoint x="-4120" y="-3390" as="targetPoint" />
            <Array as="points">
              <mxPoint x="-4240" y="-3315" />
              <mxPoint x="-4240" y="-3390" />
            </Array>
          </mxGeometry>
        </mxCell>
        <mxCell id="VR652VqxglArZezylCzY-18" value="&lt;span style=&quot;color: rgb(255, 255, 255); font-size: 24px; text-align: left;&quot;&gt;erp_cust_az12&lt;/span&gt;" style="swimlane;fontStyle=0;childLayout=stackLayout;horizontal=1;startSize=30;horizontalStack=0;resizeParent=1;resizeParentMax=0;resizeLast=0;collapsible=1;marginBottom=0;whiteSpace=wrap;html=1;rounded=1;align=center;verticalAlign=top;fontFamily=Helvetica;fontSize=26;spacingTop=-8;fillColor=#ffcd28;gradientColor=#ffa500;strokeColor=#d79b00;" parent="1" vertex="1">
          <mxGeometry x="-3706" y="-3310" width="250" height="60" as="geometry" />
        </mxCell>
        <mxCell id="VR652VqxglArZezylCzY-19" value="&lt;font style=&quot;font-size: 24px;&quot;&gt;cid&lt;/font&gt;" style="text;strokeColor=none;fillColor=none;align=left;verticalAlign=middle;spacingLeft=4;spacingRight=4;overflow=hidden;points=[[0,0.5],[1,0.5]];portConstraint=eastwest;rotatable=0;whiteSpace=wrap;html=1;fontFamily=Helvetica;fontSize=26;fontColor=default;" parent="VR652VqxglArZezylCzY-18" vertex="1">
          <mxGeometry y="30" width="250" height="30" as="geometry" />
        </mxCell>
        <mxCell id="VR652VqxglArZezylCzY-20" value="&lt;font style=&quot;font-size: 21px;&quot;&gt;Extra customer information (Bdate)&lt;/font&gt;" style="text;html=1;align=center;verticalAlign=middle;whiteSpace=wrap;rounded=0;fontFamily=Helvetica;fontSize=12;fontColor=default;" parent="1" vertex="1">
          <mxGeometry x="-3746.5" y="-3350" width="331" height="30" as="geometry" />
        </mxCell>
        <mxCell id="VR652VqxglArZezylCzY-23" value="" style="endArrow=classic;html=1;rounded=0;fontFamily=Helvetica;fontSize=12;fontColor=default;exitX=1;exitY=0.667;exitDx=0;exitDy=0;exitPerimeter=0;entryX=0;entryY=0.5;entryDx=0;entryDy=0;" parent="1" source="VR652VqxglArZezylCzY-22" target="VR652VqxglArZezylCzY-19" edge="1">
          <mxGeometry width="50" height="50" relative="1" as="geometry">
            <mxPoint x="-3881" y="-3075" as="sourcePoint" />
            <mxPoint x="-3721" y="-3150" as="targetPoint" />
            <Array as="points">
              <mxPoint x="-3760" y="-3200" />
              <mxPoint x="-3760" y="-3265" />
            </Array>
          </mxGeometry>
        </mxCell>
        <mxCell id="VR652VqxglArZezylCzY-24" value="&lt;div style=&quot;text-align: left;&quot;&gt;&lt;span style=&quot;background-color: transparent; font-size: 24px;&quot;&gt;erp_loc_a101&lt;/span&gt;&lt;/div&gt;" style="swimlane;fontStyle=0;childLayout=stackLayout;horizontal=1;startSize=30;horizontalStack=0;resizeParent=1;resizeParentMax=0;resizeLast=0;collapsible=1;marginBottom=0;whiteSpace=wrap;html=1;rounded=1;align=center;verticalAlign=top;fontFamily=Helvetica;fontSize=26;spacingTop=-8;fillColor=#ffcd28;gradientColor=#ffa500;strokeColor=#d79b00;" parent="1" vertex="1">
          <mxGeometry x="-3706" y="-3180" width="250" height="60" as="geometry" />
        </mxCell>
        <mxCell id="VR652VqxglArZezylCzY-25" value="&lt;font style=&quot;font-size: 24px;&quot;&gt;cid&lt;/font&gt;" style="text;strokeColor=none;fillColor=none;align=left;verticalAlign=middle;spacingLeft=4;spacingRight=4;overflow=hidden;points=[[0,0.5],[1,0.5]];portConstraint=eastwest;rotatable=0;whiteSpace=wrap;html=1;fontFamily=Helvetica;fontSize=26;fontColor=default;" parent="VR652VqxglArZezylCzY-24" vertex="1">
          <mxGeometry y="30" width="250" height="30" as="geometry" />
        </mxCell>
        <mxCell id="VR652VqxglArZezylCzY-26" value="&lt;font style=&quot;font-size: 21px;&quot;&gt;Location of Customers&lt;/font&gt;" style="text;html=1;align=center;verticalAlign=middle;whiteSpace=wrap;rounded=0;fontFamily=Helvetica;fontSize=12;fontColor=default;" parent="1" vertex="1">
          <mxGeometry x="-3721" y="-3210" width="280" height="30" as="geometry" />
        </mxCell>
        <mxCell id="VR652VqxglArZezylCzY-27" value="" style="endArrow=classic;html=1;rounded=0;fontFamily=Helvetica;fontSize=12;fontColor=default;entryX=0;entryY=0.5;entryDx=0;entryDy=0;" parent="1" target="VR652VqxglArZezylCzY-25" edge="1">
          <mxGeometry width="50" height="50" relative="1" as="geometry">
            <mxPoint x="-3860" y="-3200" as="sourcePoint" />
            <mxPoint x="-3722" y="-2990" as="targetPoint" />
            <Array as="points">
              <mxPoint x="-3760" y="-3200" />
              <mxPoint x="-3760" y="-3135" />
            </Array>
          </mxGeometry>
        </mxCell>
        <mxCell id="VR652VqxglArZezylCzY-28" value="&lt;div style=&quot;text-align: left;&quot;&gt;&lt;span style=&quot;font-size: 24px;&quot;&gt;erp_px_cat_g1v2&lt;/span&gt;&lt;/div&gt;" style="swimlane;fontStyle=0;childLayout=stackLayout;horizontal=1;startSize=30;horizontalStack=0;resizeParent=1;resizeParentMax=0;resizeLast=0;collapsible=1;marginBottom=0;whiteSpace=wrap;html=1;rounded=1;align=center;verticalAlign=top;fontFamily=Helvetica;fontSize=26;spacingTop=-8;fillColor=#ffcd28;gradientColor=#ffa500;strokeColor=#d79b00;" parent="1" vertex="1">
          <mxGeometry x="-3706" y="-3470" width="250" height="60" as="geometry" />
        </mxCell>
        <mxCell id="VR652VqxglArZezylCzY-29" value="&lt;font style=&quot;font-size: 24px;&quot;&gt;id&lt;/font&gt;" style="text;strokeColor=none;fillColor=none;align=left;verticalAlign=middle;spacingLeft=4;spacingRight=4;overflow=hidden;points=[[0,0.5],[1,0.5]];portConstraint=eastwest;rotatable=0;whiteSpace=wrap;html=1;fontFamily=Helvetica;fontSize=26;fontColor=default;" parent="VR652VqxglArZezylCzY-28" vertex="1">
          <mxGeometry y="30" width="250" height="30" as="geometry" />
        </mxCell>
        <mxCell id="VR652VqxglArZezylCzY-30" value="&lt;font style=&quot;font-size: 21px;&quot;&gt;Product Categories&lt;/font&gt;" style="text;html=1;align=center;verticalAlign=middle;whiteSpace=wrap;rounded=0;fontFamily=Helvetica;fontSize=12;fontColor=default;" parent="1" vertex="1">
          <mxGeometry x="-3725" y="-3500" width="280" height="30" as="geometry" />
        </mxCell>
        <mxCell id="VR652VqxglArZezylCzY-33" value="" style="endArrow=classic;html=1;rounded=0;fontFamily=Helvetica;fontSize=12;fontColor=default;exitX=1;exitY=0.5;exitDx=0;exitDy=0;entryX=0;entryY=0.5;entryDx=0;entryDy=0;" parent="1" source="VR652VqxglArZezylCzY-8" target="VR652VqxglArZezylCzY-29" edge="1">
          <mxGeometry width="50" height="50" relative="1" as="geometry">
            <mxPoint x="-3756" y="-3340" as="sourcePoint" />
            <mxPoint x="-3706" y="-3390" as="targetPoint" />
            <Array as="points">
              <mxPoint x="-3760" y="-3385" />
              <mxPoint x="-3760" y="-3425" />
            </Array>
          </mxGeometry>
        </mxCell>
        <mxCell id="VR652VqxglArZezylCzY-34" value="" style="rounded=1;whiteSpace=wrap;html=1;align=left;verticalAlign=top;fontFamily=Helvetica;fontSize=12;fontColor=default;fillColor=none;gradientColor=none;" parent="1" vertex="1">
          <mxGeometry x="-4590" y="-3500" width="790" height="390" as="geometry" />
        </mxCell>
        <mxCell id="VR652VqxglArZezylCzY-37" value="&lt;font style=&quot;font-size: 20px;&quot;&gt;&lt;b style=&quot;&quot;&gt;CRM&lt;/b&gt;&lt;/font&gt;" style="text;html=1;align=center;verticalAlign=middle;whiteSpace=wrap;rounded=0;fontFamily=Helvetica;fontSize=12;fillColor=#dae8fc;gradientColor=#7ea6e0;strokeColor=#6c8ebf;" parent="1" vertex="1">
          <mxGeometry x="-4225" y="-3530" width="60" height="30" as="geometry" />
        </mxCell>
        <mxCell id="VR652VqxglArZezylCzY-41" value="&lt;font style=&quot;font-size: 20px;&quot;&gt;&lt;b style=&quot;&quot;&gt;ERP&lt;/b&gt;&lt;/font&gt;" style="text;html=1;align=center;verticalAlign=middle;whiteSpace=wrap;rounded=0;fontFamily=Helvetica;fontSize=12;fillColor=#ffcd28;gradientColor=#ffa500;strokeColor=#d79b00;" parent="1" vertex="1">
          <mxGeometry x="-3615" y="-3530" width="60" height="30" as="geometry" />
        </mxCell>
        <mxCell id="VR652VqxglArZezylCzY-44" value="" style="rounded=1;whiteSpace=wrap;html=1;align=left;verticalAlign=top;fontFamily=Helvetica;fontSize=12;fontColor=default;fillColor=none;gradientColor=none;" parent="1" vertex="1">
          <mxGeometry x="-3780" y="-3500" width="370" height="390" as="geometry" />
        </mxCell>
      </root>
    </mxGraphModel>
  </diagram>
</mxfile>
